<?xml version="1.0" encoding="UTF-8"?>
<svg xmlns="http://www.w3.org/2000/svg" xmlns:xlink="http://www.w3.org/1999/xlink" width="285px" height="50px" viewBox="0 0 284 50" version="1.1">
<defs>
<filter id="alpha" filterUnits="objectBoundingBox" x="0%" y="0%" width="100%" height="100%">
  <feColorMatrix type="matrix" in="SourceGraphic" values="0 0 0 0 1 0 0 0 0 1 0 0 0 0 1 0 0 0 1 0"/>
</filter>
<mask id="mask0">
  <g filter="url(#alpha)">
<rect x="0" y="0" width="284" height="50" style="fill:rgb(0%,0%,0%);fill-opacity:0.976471;stroke:none;"/>
  </g>
</mask>
<clipPath id="clip1">
  <rect x="0" y="0" width="284" height="50"/>
</clipPath>
<g id="surface5" clip-path="url(#clip1)">
<path style=" stroke:none;fill-rule:evenodd;fill:rgb(78.431373%,68.235294%,50.588235%);fill-opacity:1;" d="M 129.695312 4.292969 C 133.457031 4.050781 136.890625 4.972656 139.996094 7.066406 C 142.882812 9.394531 144.507812 12.417969 144.871094 16.140625 C 142.558594 16.160156 140.246094 16.140625 137.933594 16.085938 C 137.121094 12.410156 134.828125 10.507812 131.050781 10.378906 C 126.984375 10.6875 124.417969 12.828125 123.355469 16.792969 C 122.589844 20.109375 122.773438 23.371094 123.898438 26.574219 C 126.070312 30.734375 129.414062 32.128906 133.925781 30.761719 C 136.128906 29.875 137.429688 28.261719 137.828125 25.925781 C 140.175781 25.886719 142.523438 25.925781 144.871094 26.03125 C 143.5625 32.546875 139.621094 36.296875 133.058594 37.28125 C 127.777344 37.96875 123.316406 36.394531 119.671875 32.554688 C 117.644531 30.015625 116.453125 27.117188 116.09375 23.859375 C 115.609375 20.085938 116.042969 16.425781 117.394531 12.878906 C 119.878906 7.691406 123.976562 4.828125 129.695312 4.292969 Z M 129.695312 4.292969 "/>
</g>
<mask id="mask1">
  <g filter="url(#alpha)">
<rect x="0" y="0" width="284" height="50" style="fill:rgb(0%,0%,0%);fill-opacity:0.980392;stroke:none;"/>
  </g>
</mask>
<clipPath id="clip2">
  <rect x="0" y="0" width="284" height="50"/>
</clipPath>
<g id="surface8" clip-path="url(#clip2)">
<path style=" stroke:none;fill-rule:evenodd;fill:rgb(99.607843%,100%,99.607843%);fill-opacity:1;" d="M 16.746094 4.726562 C 19.710938 4.726562 22.671875 4.726562 25.636719 4.726562 C 29.308594 15.484375 32.957031 26.242188 36.582031 37.011719 C 34.125 37.011719 31.671875 37.011719 29.214844 37.011719 C 28.453125 34.546875 27.695312 32.082031 26.9375 29.621094 C 23.105469 29.582031 19.277344 29.621094 15.445312 29.726562 C 14.628906 32.113281 13.835938 34.503906 13.0625 36.902344 C 10.605469 37.046875 8.148438 37.046875 5.691406 36.902344 C 9.398438 26.183594 13.085938 15.457031 16.746094 4.726562 Z M 21.082031 12.226562 C 21.191406 12.226562 21.261719 12.28125 21.300781 12.390625 C 22.597656 16.3125 23.863281 20.246094 25.09375 24.183594 C 22.457031 24.203125 19.816406 24.183594 17.179688 24.128906 C 18.515625 20.175781 19.816406 16.207031 21.082031 12.226562 Z M 21.082031 12.226562 "/>
</g>
<mask id="mask2">
  <g filter="url(#alpha)">
<rect x="0" y="0" width="284" height="50" style="fill:rgb(0%,0%,0%);fill-opacity:0.980392;stroke:none;"/>
  </g>
</mask>
<clipPath id="clip3">
  <rect x="0" y="0" width="284" height="50"/>
</clipPath>
<g id="surface11" clip-path="url(#clip3)">
<path style=" stroke:none;fill-rule:evenodd;fill:rgb(99.607843%,100%,99.607843%);fill-opacity:1;" d="M 99.128906 12.445312 C 102.367188 12.199219 105.296875 13.011719 107.910156 14.890625 C 110.210938 16.878906 111.566406 19.394531 111.972656 22.445312 C 112.539062 26.039062 111.925781 29.410156 110.132812 32.554688 C 107.710938 35.878906 104.421875 37.507812 100.265625 37.445312 C 93.652344 37.226562 89.75 33.855469 88.558594 27.335938 C 88.144531 24.371094 88.503906 21.511719 89.644531 18.75 C 91.644531 14.894531 94.804688 12.792969 99.128906 12.445312 Z M 99.5625 17.664062 C 101.96875 17.453125 103.613281 18.464844 104.496094 20.707031 C 105.59375 23.617188 105.558594 26.515625 104.386719 29.402344 C 103.230469 31.675781 101.40625 32.527344 98.914062 31.957031 C 97.523438 31.433594 96.566406 30.472656 96.039062 29.074219 C 95.703125 28.273438 95.488281 27.441406 95.390625 26.574219 C 95.019531 24.0625 95.453125 21.707031 96.691406 19.511719 C 97.414062 18.523438 98.375 17.90625 99.5625 17.664062 Z M 99.5625 17.664062 "/>
</g>
<mask id="mask3">
  <g filter="url(#alpha)">
<rect x="0" y="0" width="284" height="50" style="fill:rgb(0%,0%,0%);fill-opacity:0.976471;stroke:none;"/>
  </g>
</mask>
<clipPath id="clip4">
  <rect x="0" y="0" width="284" height="50"/>
</clipPath>
<g id="surface14" clip-path="url(#clip4)">
<path style=" stroke:none;fill-rule:evenodd;fill:rgb(78.431373%,68.235294%,50.588235%);fill-opacity:1;" d="M 159.074219 12.445312 C 161.878906 12.261719 164.480469 12.894531 166.878906 14.347656 C 169.570312 16.40625 171.070312 19.140625 171.375 22.554688 C 171.492188 23.890625 171.546875 25.234375 171.539062 26.574219 C 166.082031 26.574219 160.625 26.574219 155.171875 26.574219 C 155.425781 30.90625 157.699219 32.773438 162 32.175781 C 163.507812 31.839844 164.519531 30.949219 165.035156 29.511719 C 167.128906 29.671875 169.222656 29.820312 171.320312 29.945312 C 170.484375 33.484375 168.316406 35.785156 164.816406 36.847656 C 161.128906 37.867188 157.550781 37.578125 154.085938 35.976562 C 150.558594 33.773438 148.699219 30.566406 148.503906 26.359375 C 148.136719 22.71875 149.003906 19.421875 151.105469 16.46875 C 153.207031 14.011719 155.863281 12.667969 159.074219 12.445312 Z M 159.507812 17.554688 C 162.855469 17.421875 164.734375 19.015625 165.144531 22.335938 C 161.816406 22.335938 158.496094 22.335938 155.171875 22.335938 C 155.523438 19.734375 156.96875 18.140625 159.507812 17.554688 Z M 159.507812 17.554688 "/>
</g>
<mask id="mask4">
  <g filter="url(#alpha)">
<rect x="0" y="0" width="284" height="50" style="fill:rgb(0%,0%,0%);fill-opacity:0.980392;stroke:none;"/>
  </g>
</mask>
<clipPath id="clip5">
  <rect x="0" y="0" width="284" height="50"/>
</clipPath>
<g id="surface17" clip-path="url(#clip5)">
<path style=" stroke:none;fill-rule:evenodd;fill:rgb(78.431373%,68.235294%,50.588235%);fill-opacity:1;" d="M 188.554688 12.445312 C 193.667969 12.371094 197.007812 14.765625 198.582031 19.621094 C 199.386719 22.707031 199.496094 25.824219 198.910156 28.96875 C 198.238281 32.460938 196.339844 35.015625 193.21875 36.628906 C 190.792969 37.566406 188.371094 37.566406 185.953125 36.628906 C 184.484375 35.789062 183.363281 34.609375 182.59375 33.097656 C 182.484375 37.410156 182.449219 41.71875 182.484375 46.03125 C 180.246094 46.03125 178.007812 46.03125 175.765625 46.03125 C 175.765625 34.945312 175.765625 23.859375 175.765625 12.773438 C 178.007812 12.773438 180.246094 12.773438 182.484375 12.773438 C 182.449219 14.113281 182.484375 15.453125 182.59375 16.792969 C 183.800781 14.25 185.789062 12.800781 188.554688 12.445312 Z M 186.714844 17.878906 C 189.066406 17.675781 190.710938 18.652344 191.644531 20.816406 C 192.542969 23.410156 192.578125 26.019531 191.753906 28.640625 C 190.332031 31.835938 188.039062 32.6875 184.871094 31.195312 C 183.960938 30.511719 183.328125 29.625 182.972656 28.53125 C 182.042969 25.632812 182.226562 22.804688 183.515625 20.054688 C 184.25 18.828125 185.316406 18.105469 186.714844 17.878906 Z M 186.714844 17.878906 "/>
</g>
<mask id="mask5">
  <g filter="url(#alpha)">
<rect x="0" y="0" width="284" height="50" style="fill:rgb(0%,0%,0%);fill-opacity:0.976471;stroke:none;"/>
  </g>
</mask>
<clipPath id="clip6">
  <rect x="0" y="0" width="284" height="50"/>
</clipPath>
<g id="surface20" clip-path="url(#clip6)">
<path style=" stroke:none;fill-rule:evenodd;fill:rgb(78.431373%,68.235294%,50.588235%);fill-opacity:1;" d="M 265.625 12.445312 C 268.714844 12.207031 271.535156 12.949219 274.082031 14.675781 C 276.292969 16.515625 277.449219 18.890625 277.550781 21.792969 C 275.417969 21.792969 273.289062 21.792969 271.15625 21.792969 C 270.570312 18.691406 268.730469 17.402344 265.625 17.933594 C 263.558594 18.726562 262.347656 20.230469 261.996094 22.445312 C 261.78125 24.039062 261.78125 25.632812 261.996094 27.226562 C 262.210938 28.695312 262.84375 29.945312 263.890625 30.976562 C 265.632812 32.222656 267.4375 32.332031 269.3125 31.304688 C 270.359375 30.453125 270.976562 29.347656 271.15625 27.988281 C 273.289062 27.988281 275.417969 27.988281 277.550781 27.988281 C 277.261719 32.386719 275.058594 35.339844 270.9375 36.847656 C 267.621094 37.777344 264.371094 37.597656 261.183594 36.304688 C 257.628906 34.382812 255.585938 31.390625 255.058594 27.335938 C 254.480469 23.570312 255.203125 20.09375 257.226562 16.902344 C 259.386719 14.199219 262.1875 12.710938 265.625 12.445312 Z M 265.625 12.445312 "/>
</g>
<mask id="mask6">
  <g filter="url(#alpha)">
<rect x="0" y="0" width="284" height="50" style="fill:rgb(0%,0%,0%);fill-opacity:0.980392;stroke:none;"/>
  </g>
</mask>
<clipPath id="clip7">
  <rect x="0" y="0" width="284" height="50"/>
</clipPath>
<g id="surface23" clip-path="url(#clip7)">
<path style=" stroke:none;fill-rule:evenodd;fill:rgb(99.607843%,100%,99.607843%);fill-opacity:1;" d="M 40.269531 12.773438 C 44.570312 12.722656 48.871094 12.777344 53.167969 12.933594 C 55.046875 13.140625 56.742188 13.792969 58.261719 14.890625 C 60.195312 16.753906 60.683594 18.945312 59.726562 21.46875 C 59.035156 22.566406 58.078125 23.347656 56.855469 23.804688 C 56.3125 23.984375 55.769531 24.167969 55.226562 24.347656 C 58.046875 24.535156 60.050781 25.894531 61.246094 28.425781 C 62.101562 32.308594 60.675781 34.933594 56.960938 36.304688 C 55.40625 36.765625 53.816406 36.984375 52.191406 36.957031 C 48.21875 37.011719 44.246094 37.027344 40.269531 37.011719 C 40.269531 28.929688 40.269531 20.851562 40.269531 12.773438 Z M 46.554688 17.988281 C 48.332031 17.941406 50.101562 17.996094 51.867188 18.152344 C 53.671875 18.707031 54.195312 19.851562 53.441406 21.574219 C 53.070312 22.007812 52.617188 22.3125 52.085938 22.5 C 50.246094 22.65625 48.40625 22.710938 46.554688 22.664062 C 46.554688 21.105469 46.554688 19.546875 46.554688 17.988281 Z M 46.554688 26.683594 C 48.765625 26.636719 50.96875 26.691406 53.167969 26.847656 C 54.648438 27.402344 55.242188 28.46875 54.957031 30.054688 C 54.734375 30.824219 54.246094 31.347656 53.492188 31.628906 C 53.03125 31.742188 52.5625 31.816406 52.085938 31.847656 C 50.242188 31.902344 48.398438 31.921875 46.554688 31.902344 C 46.554688 30.164062 46.554688 28.425781 46.554688 26.683594 Z M 46.554688 26.683594 "/>
</g>
<mask id="mask7">
  <g filter="url(#alpha)">
<rect x="0" y="0" width="284" height="50" style="fill:rgb(0%,0%,0%);fill-opacity:0.976471;stroke:none;"/>
  </g>
</mask>
<clipPath id="clip8">
  <rect x="0" y="0" width="284" height="50"/>
</clipPath>
<g id="surface26" clip-path="url(#clip8)">
<path style=" stroke:none;fill-rule:evenodd;fill:rgb(99.607843%,100%,99.607843%);fill-opacity:1;" d="M 64.332031 12.773438 C 71.632812 12.773438 78.929688 12.773438 86.230469 12.773438 C 86.230469 14.546875 86.230469 16.324219 86.230469 18.097656 C 83.664062 18.097656 81.097656 18.097656 78.535156 18.097656 C 78.535156 24.402344 78.535156 30.707031 78.535156 37.011719 C 76.367188 37.011719 74.199219 37.011719 72.03125 37.011719 C 72.03125 30.707031 72.03125 24.402344 72.03125 18.097656 C 69.464844 18.097656 66.898438 18.097656 64.332031 18.097656 C 64.332031 16.324219 64.332031 14.546875 64.332031 12.773438 Z M 64.332031 12.773438 "/>
</g>
<mask id="mask8">
  <g filter="url(#alpha)">
<rect x="0" y="0" width="284" height="50" style="fill:rgb(0%,0%,0%);fill-opacity:0.980392;stroke:none;"/>
  </g>
</mask>
<clipPath id="clip9">
  <rect x="0" y="0" width="284" height="50"/>
</clipPath>
<g id="surface29" clip-path="url(#clip9)">
<path style=" stroke:none;fill-rule:evenodd;fill:rgb(78.431373%,68.235294%,50.588235%);fill-opacity:1;" d="M 203.625 12.773438 C 207.925781 12.722656 212.226562 12.777344 216.523438 12.933594 C 218.398438 13.140625 220.097656 13.792969 221.617188 14.890625 C 223.550781 16.753906 224.039062 18.945312 223.082031 21.46875 C 222.390625 22.566406 221.429688 23.347656 220.207031 23.804688 C 219.664062 23.984375 219.125 24.167969 218.582031 24.347656 C 221.402344 24.535156 223.40625 25.894531 224.597656 28.425781 C 225.457031 32.308594 224.03125 34.933594 220.316406 36.304688 C 218.761719 36.765625 217.171875 36.984375 215.546875 36.957031 C 211.574219 37.011719 207.597656 37.027344 203.625 37.011719 C 203.625 28.929688 203.625 20.851562 203.625 12.773438 Z M 209.910156 17.988281 C 211.6875 17.941406 213.457031 17.996094 215.222656 18.152344 C 217.027344 18.707031 217.550781 19.851562 216.792969 21.574219 C 216.421875 22.007812 215.972656 22.3125 215.4375 22.5 C 213.601562 22.65625 211.757812 22.710938 209.910156 22.664062 C 209.910156 21.105469 209.910156 19.546875 209.910156 17.988281 Z M 209.910156 26.683594 C 212.121094 26.636719 214.324219 26.691406 216.523438 26.847656 C 218 27.402344 218.597656 28.46875 218.3125 30.054688 C 218.085938 30.824219 217.597656 31.347656 216.847656 31.628906 C 216.386719 31.742188 215.914062 31.816406 215.4375 31.847656 C 213.597656 31.902344 211.753906 31.921875 209.910156 31.902344 C 209.910156 30.164062 209.910156 28.425781 209.910156 26.683594 Z M 209.910156 26.683594 "/>
</g>
<mask id="mask9">
  <g filter="url(#alpha)">
<rect x="0" y="0" width="284" height="50" style="fill:rgb(0%,0%,0%);fill-opacity:0.976471;stroke:none;"/>
  </g>
</mask>
<clipPath id="clip10">
  <rect x="0" y="0" width="284" height="50"/>
</clipPath>
<g id="surface32" clip-path="url(#clip10)">
<path style=" stroke:none;fill-rule:evenodd;fill:rgb(78.431373%,68.235294%,50.588235%);fill-opacity:1;" d="M 228.988281 12.773438 C 231.15625 12.773438 233.324219 12.773438 235.492188 12.773438 C 235.472656 17.734375 235.492188 22.699219 235.546875 27.664062 C 238.367188 22.75 241.167969 17.820312 243.949219 12.878906 C 246.1875 12.773438 248.425781 12.734375 250.667969 12.773438 C 250.667969 20.851562 250.667969 28.929688 250.667969 37.011719 C 248.5 37.011719 246.332031 37.011719 244.164062 37.011719 C 244.183594 32.011719 244.164062 27.011719 244.109375 22.011719 C 241.296875 26.984375 238.496094 31.964844 235.710938 36.957031 C 233.46875 37.011719 231.230469 37.027344 228.988281 37.011719 C 228.988281 28.929688 228.988281 20.851562 228.988281 12.773438 Z M 228.988281 12.773438 "/>
</g>
</defs>
<g id="surface1">
<use xlink:href="#surface5" mask="url(#mask0)"/>
<use xlink:href="#surface8" mask="url(#mask1)"/>
<use xlink:href="#surface11" mask="url(#mask2)"/>
<use xlink:href="#surface14" mask="url(#mask3)"/>
<use xlink:href="#surface17" mask="url(#mask4)"/>
<use xlink:href="#surface20" mask="url(#mask5)"/>
<use xlink:href="#surface23" mask="url(#mask6)"/>
<use xlink:href="#surface26" mask="url(#mask7)"/>
<use xlink:href="#surface29" mask="url(#mask8)"/>
<use xlink:href="#surface32" mask="url(#mask9)"/>
</g>
</svg>
